<?xml version="1.0" encoding="UTF-8"?>
<svg id="Layer_2" data-name="Layer 2" xmlns="http://www.w3.org/2000/svg" viewBox="0 0 90.66 64.27">
  <defs>
    <style>
      .cls-1 {
        fill: #d79c5c;
      }

      .cls-2 {
        fill: #a3a294;
      }

      .cls-3 {
        fill: #315b4b;
      }
    </style>
  </defs>
  <g id="Layer_1-2" data-name="Layer 1">
    <g>
      <g>
        <g>
          <g>
            <path class="cls-1" d="M43.33,37.06l-5.48-.33c-.27-.02-.48-.24-.48-.51V3.59c0-.2.12-.37.3-.45l5.91-2.6c.14-.06.3.04.3.19v35.81c0,.29-.25.53-.54.51Z"/>
            <path class="cls-2" d="M43.37,38.73l-5.48-.14c-.29,0-.52.22-.52.51v5.37s6.5.96,6.5.96v-6.18c0-.28-.22-.5-.5-.51Z"/>
            <path class="cls-1" d="M58.39,9.87v13.05l-6.5-3.01v-8.13c0-.53-.31-1.01-.8-1.23l-5.41-2.38c-.18-.08-.3-.26-.3-.45V.49c0-.36.37-.6.69-.45l5.81,2.56,2.45,1.08c2.46,1.08,4.05,3.51,4.05,6.2Z"/>
            <path class="cls-3" d="M45.39,19.7v25.85s15.43-2.56,15.43-2.56c2.35-.39,4.07-2.42,4.07-4.8v-7.82c0-1.93-1.14-3.68-2.91-4.46l-15.6-6.86c-.47-.21-1,.14-1,.65ZM51.89,37.78v-7.89c0-.51.53-.86,1-.65l4.5,1.98c.61.27,1,.87,1,1.53v2.16c0,.66-.39,1.27-1,1.53l-1.15.5-3.35,1.47c-.47.21-1-.14-1-.65Z"/>
            <path class="cls-2" d="M35.85,41.32v2.89l-10.91-1.71v-2.05c0-.29.25-.52.54-.49l9.92.87c.26.02.45.24.45.49Z"/>
            <path class="cls-2" d="M35.85,36.52v1.53c0,.27-.22.5-.5.49l-9.92-.1c-.27,0-.49-.22-.49-.49v-1.52c0-.27.22-.5.5-.49l9.92.09c.27,0,.49.22.49.49Z"/>
            <path class="cls-2" d="M35.85,30.98v1.48c0,.25-.18.46-.43.49l-9.92,1.35c-.3.04-.56-.19-.56-.49v-1.48c0-.25.18-.46.43-.49l9.92-1.35c.3-.04.56.19.56.49Z"/>
            <path class="cls-2" d="M35.85,25.42v1.49c0,.22-.15.42-.36.48l-9.92,2.8c-.32.09-.63-.15-.63-.48v-1.48c0-.22.15-.42.36-.48l9.92-2.81c.32-.09.63.15.63.48Z"/>
            <path class="cls-2" d="M35.85,19.86v1.51c0,.2-.12.38-.3.45l-9.92,4.25c-.33.14-.69-.1-.69-.45v-1.51c0-.2.12-.38.3-.45l9.92-4.26c.33-.14.69.1.69.45Z"/>
            <path class="cls-2" d="M35.85,12.34v3.49c0,.18-.09.34-.25.43l-9.92,5.71c-.33.19-.74-.05-.74-.43v-3.49c0-.18.09-.34.25-.43l9.92-5.71c.33-.19.74.05.74.43Z"/>
          </g>
          <path class="cls-2" d="M71.23,41.25c-6.6,1.4-13.23,2.63-19.87,3.77,0,0-3.32.58-3.32.58-1.63.3-3.53.71-5.17.28-5.77-.98-12.47-2.17-18.25-3.28-2.2-.45-4.41-.87-6.61-1.35,2.24.26,4.46.57,6.69.86,6.4.81,13.58,2.19,19.92,2.95,8.82-1.13,17.74-2.84,26.61-3.81h0Z"/>
        </g>
        <g>
          <path class="cls-1" d="M5.13,63.78v.43h-1.89v-2.49h1.86v.43h-1.38v.59h1.31v.42h-1.31v.62h1.41Z"/>
          <path class="cls-1" d="M9.19,61.72v2.49h-.44l-1.24-1.67v.74s0,.93,0,.93h-.49v-2.49h.44l1.24,1.67v-.71s0-.96,0-.96h.49Z"/>
          <path class="cls-1" d="M13.37,62.77v1.08c-.27.28-.61.42-1.04.42-.79,0-1.3-.51-1.3-1.3s.54-1.3,1.33-1.3c.37,0,.69.13.94.39l-.31.31c-.16-.16-.4-.26-.64-.26-.5,0-.84.34-.84.86s.32.86.81.86c.25,0,.44-.07.6-.2v-.45h-.69v-.41h1.12Z"/>
          <path class="cls-1" d="M15.26,61.72h.49v2.49h-.49v-2.49Z"/>
          <path class="cls-1" d="M19.92,61.72v2.49h-.44l-1.24-1.67v.74s0,.93,0,.93h-.49v-2.49h.44l1.24,1.67v-.71s0-.96,0-.96h.49Z"/>
          <path class="cls-1" d="M23.81,63.78v.43h-1.89v-2.49h1.86v.43h-1.38v.59h1.31v.42h-1.31v.62h1.41Z"/>
          <path class="cls-1" d="M27.59,63.78v.43h-1.89v-2.49h1.86v.43h-1.38v.59h1.31v.42h-1.31v.62h1.41Z"/>
          <path class="cls-1" d="M30.39,63.37h-.43v.84h-.49v-2.49h1.18c.54,0,.89.33.89.83,0,.4-.22.69-.61.79l.74.87h-.6l-.68-.84ZM30.62,62.16h-.66v.79h.66c.27,0,.43-.15.43-.39s-.16-.4-.43-.4Z"/>
          <path class="cls-1" d="M33.3,63.92l.26-.37c.21.17.5.27.8.27.33,0,.54-.12.54-.32,0-.19-.17-.29-.56-.33-.68-.08-.97-.31-.97-.75s.41-.74.99-.74c.34,0,.68.11.93.3l-.24.35c-.2-.15-.44-.22-.68-.22-.31,0-.52.13-.52.31s.16.28.55.33c.69.09,1,.33,1,.76,0,.47-.41.78-1.03.78-.39,0-.78-.12-1.06-.35Z"/>
          <path class="cls-1" d="M41.33,64.24l-.31-.29c-.22.2-.49.31-.81.31-.51,0-.84-.27-.84-.64,0-.29.18-.54.52-.73-.19-.21-.28-.37-.28-.57,0-.37.31-.65.76-.65.4,0,.67.26.67.6,0,.26-.16.49-.5.69l.43.4c.08-.14.12-.27.14-.42l.39.1c-.04.23-.11.44-.22.62l.31.29-.27.29ZM40.73,63.68l-.56-.53c-.22.11-.32.26-.32.42,0,.17.15.29.38.29.18,0,.35-.06.5-.18ZM40.05,62.32c0,.12.04.2.23.39.25-.15.33-.27.33-.41s-.1-.24-.26-.24c-.19,0-.3.11-.3.26Z"/>
          <path class="cls-1" d="M45.46,62.97c0-.77.54-1.3,1.32-1.3.37,0,.68.13.93.39l-.32.3c-.16-.16-.36-.25-.6-.25-.49,0-.83.34-.83.85s.34.85.83.85c.25,0,.48-.09.65-.26l.3.33c-.26.25-.58.38-.95.38-.79,0-1.32-.53-1.32-1.3Z"/>
          <path class="cls-1" d="M49.32,62.97c0-.78.52-1.3,1.31-1.3s1.31.52,1.31,1.3-.52,1.3-1.31,1.3-1.31-.52-1.31-1.3ZM51.44,62.97c0-.51-.33-.85-.81-.85s-.81.34-.81.85.33.85.81.85.81-.35.81-.85Z"/>
          <path class="cls-1" d="M55.96,61.72v2.49h-.44l-1.24-1.67v.74s0,.93,0,.93h-.49v-2.49h.44l1.24,1.67v-.71s0-.96,0-.96h.49Z"/>
          <path class="cls-1" d="M59.78,62.16h-.79v2.05h-.49v-2.05h-.79v-.44h2.07v.44Z"/>
          <path class="cls-1" d="M62.47,63.37h-.43v.84h-.49v-2.49h1.18c.54,0,.89.33.89.83,0,.4-.22.69-.61.79l.74.87h-.6l-.68-.84ZM62.7,62.16h-.67v.79h.67c.27,0,.43-.15.43-.39s-.16-.4-.43-.4Z"/>
          <path class="cls-1" d="M67.27,63.73h-1.28l-.21.48h-.53l1.12-2.49h.54l1.11,2.49h-.54l-.21-.48ZM66.16,63.29h.92l-.46-1.08-.46,1.08Z"/>
          <path class="cls-1" d="M69.48,62.97c0-.77.54-1.3,1.32-1.3.37,0,.68.13.93.39l-.32.3c-.16-.16-.36-.25-.6-.25-.49,0-.83.34-.83.85s.34.85.83.85c.25,0,.48-.09.65-.26l.3.33c-.26.25-.58.38-.95.38-.79,0-1.32-.53-1.32-1.3Z"/>
          <path class="cls-1" d="M75.37,62.16h-.79v2.05h-.49v-2.05h-.79v-.44h2.07v.44Z"/>
          <path class="cls-1" d="M76.94,62.97c0-.78.52-1.3,1.31-1.3s1.31.52,1.31,1.3-.52,1.3-1.31,1.3-1.31-.52-1.31-1.3ZM79.06,62.97c0-.51-.33-.85-.81-.85s-.81.34-.81.85.33.85.81.85.81-.35.81-.85Z"/>
          <path class="cls-1" d="M82.33,63.37h-.43v.84h-.49v-2.49h1.18c.54,0,.89.33.89.83,0,.4-.22.69-.61.79l.74.87h-.6l-.68-.84ZM82.56,62.16h-.67v.79h.67c.27,0,.43-.15.43-.39s-.16-.4-.43-.4Z"/>
          <path class="cls-1" d="M85.23,63.92l.26-.37c.21.17.5.27.8.27.33,0,.54-.12.54-.32,0-.19-.17-.29-.57-.33-.68-.08-.97-.31-.97-.75s.41-.74.99-.74c.34,0,.68.11.93.3l-.24.35c-.2-.15-.44-.22-.67-.22-.31,0-.52.13-.52.31s.16.28.55.33c.69.09,1,.33,1,.76,0,.47-.41.78-1.03.78-.39,0-.78-.12-1.06-.35Z"/>
        </g>
      </g>
      <g>
        <path class="cls-1" d="M6.2,52.23c0,1.59-1.24,2.62-3.28,2.62-.36,0-.8-.04-1.07-.07v3.58H0v-8.52h2.92c2.19,0,3.28.89,3.28,2.39ZM4.27,52.37c0-1.35-.5-2.34-1.73-2.34h-.69v4.54c.17.06.4.09.67.09,1.19,0,1.74-.87,1.74-2.29Z"/>
        <path class="cls-1" d="M16.96,56.59v2.15h-.09l-3.76-4.05c-.17-.18-.3-.22-.53-.22h-.37v3.89h-1.85v-8.52h2.66c2.41,0,3.62.69,3.62,2.12,0,1.12-.91,1.77-2.05,2.13l2.37,2.5ZM14.85,52.05c0-1.23-.62-2.02-1.93-2.02h-.72v4.19c.23.05.67.07.88.07,1.09,0,1.77-1.02,1.77-2.24Z"/>
        <path class="cls-1" d="M20.57,54.18c0-2.76,1.94-4.48,4.59-4.48,2.51,0,4.43,1.57,4.43,4.32s-1.94,4.48-4.59,4.48c-2.51,0-4.43-1.57-4.43-4.32ZM27.58,54.15c0-2.55-.91-4.26-2.52-4.26s-2.46,1.66-2.46,4.17.91,4.26,2.53,4.26,2.45-1.65,2.45-4.17Z"/>
        <path class="cls-1" d="M41.84,54.03c0,2.74-1.92,4.33-5.13,4.33h-2.81v-8.52h3.16c2.8,0,4.78,1.43,4.78,4.19ZM39.83,54.07c0-2.41-1.06-4.04-2.85-4.04h-1.23v8.04c.24.07.57.11,1.31.11,1.81,0,2.77-1.49,2.77-4.11Z"/>
        <path class="cls-1" d="M51.75,57.2l-.26,1.16h-5.34v-8.52h5.22l.16,1.08h-.02c-.96-.6-2.05-.87-3.04-.87h-.48v3.77h.3c1.26,0,2.1-.15,2.38-.42h.02v1.12h-.02c-.28-.28-1.13-.49-2.38-.49h-.3v4.12h.54c.99,0,2.13-.23,3.19-.95h.02Z"/>
        <path class="cls-1" d="M55.47,57.92l.27-1.01c.52.83,1.7,1.4,2.71,1.4,1.09,0,1.7-.68,1.7-1.5,0-1.05-1.05-1.5-1.86-1.86l-.58-.25c-.81-.36-2.14-1-2.14-2.54,0-1.42,1.14-2.47,2.91-2.47,1.07,0,2.08.39,2.44.58l-.23.9c-.51-.6-1.33-1.3-2.36-1.3s-1.57.66-1.57,1.4c0,.96.92,1.39,1.77,1.77l.58.25c.94.41,2.22,1.03,2.22,2.6,0,1.38-1.06,2.6-3.02,2.6-1.13,0-2.48-.4-2.83-.58Z"/>
        <path class="cls-1" d="M65.52,49.84h1.85v8.52h-1.85v-8.52Z"/>
        <path class="cls-1" d="M79.76,54.5v3.02c-.88.6-1.92.98-3.3.98-2.91,0-4.75-1.56-4.75-4.34s1.95-4.46,4.59-4.46c1.42,0,2.58.66,3.28,1.37l-.8.73c-.43-.96-1.26-1.91-2.55-1.91-1.71,0-2.51,1.65-2.51,4.19s1.06,4.21,2.79,4.21c.55,0,1.21-.15,1.59-.4v-3.18h-1.66l-.13-.21h3.45Z"/>
        <path class="cls-1" d="M90.66,49.84c-.22.94-.36,2.08-.36,3.72v4.94h-.15l-5.59-7.29v3.43c0,1.64.14,2.79.36,3.72h-.95c.22-.94.36-2.08.36-3.72v-3.73l-.79-1.03v-.04h2.2l4.34,5.77v-2.05c0-1.64-.14-2.79-.36-3.72h.95Z"/>
      </g>
    </g>
  </g>
</svg>